<mxfile host="app.diagrams.net" modified="2021-02-04T10:48:20.522Z" agent="5.0 (Macintosh; Intel Mac OS X 10_13_6) AppleWebKit/537.36 (KHTML, like Gecko) Chrome/88.0.4324.96 Safari/537.36" etag="zEu77otUWPUFWcHsFmVb" version="14.2.9" type="github">
  <diagram id="AVRiDi35knpaCXJjXSPx" name="Page-1">
    <mxGraphModel dx="652" dy="423" grid="1" gridSize="10" guides="1" tooltips="1" connect="1" arrows="1" fold="1" page="1" pageScale="1" pageWidth="827" pageHeight="1169" math="0" shadow="0">
      <root>
        <mxCell id="0" />
        <mxCell id="1" parent="0" />
        <mxCell id="2n_67ckf5VPScklOxceB-27" style="edgeStyle=orthogonalEdgeStyle;rounded=0;orthogonalLoop=1;jettySize=auto;html=1;exitX=0.5;exitY=1;exitDx=0;exitDy=0;dashed=1;" edge="1" parent="1" source="2n_67ckf5VPScklOxceB-1" target="2n_67ckf5VPScklOxceB-8">
          <mxGeometry relative="1" as="geometry" />
        </mxCell>
        <mxCell id="2n_67ckf5VPScklOxceB-1" value="console-home" style="rounded=1;whiteSpace=wrap;html=1;fillColor=#f5f5f5;strokeColor=#666666;fontColor=#333333;" vertex="1" parent="1">
          <mxGeometry x="90" y="70" width="80" height="30" as="geometry" />
        </mxCell>
        <mxCell id="2n_67ckf5VPScklOxceB-28" style="edgeStyle=orthogonalEdgeStyle;rounded=0;orthogonalLoop=1;jettySize=auto;html=1;exitX=0.5;exitY=1;exitDx=0;exitDy=0;dashed=1;" edge="1" parent="1" source="2n_67ckf5VPScklOxceB-3" target="2n_67ckf5VPScklOxceB-8">
          <mxGeometry relative="1" as="geometry" />
        </mxCell>
        <mxCell id="2n_67ckf5VPScklOxceB-3" value="console-product" style="rounded=1;whiteSpace=wrap;html=1;fillColor=#ffe6cc;strokeColor=#d79b00;" vertex="1" parent="1">
          <mxGeometry x="190" y="70" width="100" height="30" as="geometry" />
        </mxCell>
        <mxCell id="2n_67ckf5VPScklOxceB-30" style="edgeStyle=orthogonalEdgeStyle;rounded=0;orthogonalLoop=1;jettySize=auto;html=1;exitX=0.5;exitY=1;exitDx=0;exitDy=0;entryX=0.5;entryY=0;entryDx=0;entryDy=0;dashed=1;" edge="1" parent="1" source="2n_67ckf5VPScklOxceB-5" target="2n_67ckf5VPScklOxceB-8">
          <mxGeometry relative="1" as="geometry" />
        </mxCell>
        <mxCell id="2n_67ckf5VPScklOxceB-5" value="fe-base/dep" style="rounded=1;whiteSpace=wrap;html=1;fillColor=#fff2cc;strokeColor=#d6b656;" vertex="1" parent="1">
          <mxGeometry x="312.5" y="70" width="80" height="30" as="geometry" />
        </mxCell>
        <mxCell id="2n_67ckf5VPScklOxceB-31" style="edgeStyle=orthogonalEdgeStyle;rounded=0;orthogonalLoop=1;jettySize=auto;html=1;exitX=0.5;exitY=1;exitDx=0;exitDy=0;entryX=0.5;entryY=0;entryDx=0;entryDy=0;dashed=1;" edge="1" parent="1" source="2n_67ckf5VPScklOxceB-6" target="2n_67ckf5VPScklOxceB-8">
          <mxGeometry relative="1" as="geometry" />
        </mxCell>
        <mxCell id="2n_67ckf5VPScklOxceB-6" value="common" style="rounded=1;whiteSpace=wrap;html=1;fillColor=#f8cecc;strokeColor=#b85450;" vertex="1" parent="1">
          <mxGeometry x="414" y="70" width="80" height="30" as="geometry" />
        </mxCell>
        <mxCell id="2n_67ckf5VPScklOxceB-8" value="src" style="ellipse;whiteSpace=wrap;html=1;fillColor=#d5e8d4;strokeColor=#82b366;" vertex="1" parent="1">
          <mxGeometry x="220" y="190" width="105" height="30" as="geometry" />
        </mxCell>
        <mxCell id="2n_67ckf5VPScklOxceB-14" value="" style="ellipse;whiteSpace=wrap;html=1;fillColor=none;dashed=1;" vertex="1" parent="1">
          <mxGeometry x="95" y="180" width="355" height="150" as="geometry" />
        </mxCell>
        <mxCell id="2n_67ckf5VPScklOxceB-22" value="tool(edp)" style="ellipse;whiteSpace=wrap;html=1;fillColor=#d5e8d4;strokeColor=#82b366;" vertex="1" parent="1">
          <mxGeometry x="150" y="230" width="105" height="30" as="geometry" />
        </mxCell>
        <mxCell id="2n_67ckf5VPScklOxceB-23" value="mock" style="ellipse;whiteSpace=wrap;html=1;fillColor=#d5e8d4;strokeColor=#82b366;" vertex="1" parent="1">
          <mxGeometry x="280" y="230" width="105" height="30" as="geometry" />
        </mxCell>
        <mxCell id="2n_67ckf5VPScklOxceB-26" value="&lt;table border=&quot;1&quot; width=&quot;100%&quot; cellpadding=&quot;4&quot; style=&quot;width: 100% ; height: 100% ; border-collapse: collapse&quot;&gt;&lt;tbody&gt;&lt;tr&gt;&lt;th align=&quot;center&quot;&gt;模块介绍&lt;/th&gt;&lt;/tr&gt;&lt;tr&gt;&lt;td&gt;console-home：首页、导航&lt;br&gt;console-product：主要业务代码&lt;br&gt;fe-base/dep：前端基础库&lt;br&gt;common：前段公共方法&lt;/td&gt;&lt;/tr&gt;&lt;tr&gt;&lt;td&gt;src：软链接后前端代码集合&lt;br&gt;tool：前端构建工具库&lt;br&gt;mock：前端mock数据&lt;/td&gt;&lt;/tr&gt;&lt;/tbody&gt;&lt;/table&gt;" style="text;html=1;strokeColor=none;fillColor=none;overflow=fill;dashed=1;" vertex="1" parent="1">
          <mxGeometry x="520" y="70" width="190" height="140" as="geometry" />
        </mxCell>
      </root>
    </mxGraphModel>
  </diagram>
</mxfile>
